<?xml version="1.0" encoding="utf-8" standalone="no"?>
<!DOCTYPE svg PUBLIC "-//W3C//DTD SVG 1.1//EN"
  "http://www.w3.org/Graphics/SVG/1.1/DTD/svg11.dtd">
<svg xmlns:xlink="http://www.w3.org/1999/xlink" width="352.491758pt" height="162.833195pt" viewBox="0 0 352.491758 162.833195" xmlns="http://www.w3.org/2000/svg" version="1.1">
 <metadata>
  <rdf:RDF xmlns:dc="http://purl.org/dc/elements/1.1/" xmlns:cc="http://creativecommons.org/ns#" xmlns:rdf="http://www.w3.org/1999/02/22-rdf-syntax-ns#">
   <cc:Work>
    <dc:type rdf:resource="http://purl.org/dc/dcmitype/StillImage"/>
    <dc:format>image/svg+xml</dc:format>
    <dc:creator>
     <cc:Agent>
      <dc:title>Matplotlib v3.11.1, https://matplotlib.org/</dc:title>
     </cc:Agent>
    </dc:creator>
   </cc:Work>
  </rdf:RDF>
 </metadata>
 <defs>
  <style type="text/css">*{stroke-linejoin: round; stroke-linecap: butt}</style>
 </defs>
 <g id="figure_1">
  <g id="patch_1">
   <path d="M 0 162.833195 
L 352.491758 162.833195 
L 352.491758 -0 
L 0 -0 
z
" style="fill: #ffffff"/>
  </g>
  <g id="axes_1">
   <g id="patch_2">
    <path d="M 38.391758 129.168 
L 345.291758 129.168 
L 345.291758 7.2 
L 38.391758 7.2 
z
" style="fill: #ffffff"/>
   </g>
   <g id="matplotlib.axis_1">
    <g id="xtick_1">
     <g id="line2d_1">
      <defs>
       <path id="mf1e5ee7694" d="M 0 0 
L 0 3.5 
" style="stroke: #000000; stroke-width: 0.8"/>
      </defs>
      <g>
       <use xlink:href="#mf1e5ee7694" x="51.24764" y="129.168" style="stroke: #000000; stroke-width: 0.8"/>
      </g>
     </g>
     <g id="text_1">
      <!-- 0 -->
      <g transform="translate(49.24764 141.714875) scale(0.08 -0.08)">
       <defs>
        <path id="TimesNewRomanPSMT-13" d="M 231 2094 
Q 231 2819 450 3342 
Q 669 3866 1031 4122 
Q 1313 4325 1613 4325 
Q 2100 4325 2488 3828 
Q 2972 3213 2972 2159 
Q 2972 1422 2759 906 
Q 2547 391 2217 158 
Q 1888 -75 1581 -75 
Q 975 -75 572 641 
Q 231 1244 231 2094 
z
M 844 2016 
Q 844 1141 1059 588 
Q 1238 122 1591 122 
Q 1759 122 1940 273 
Q 2122 425 2216 781 
Q 2359 1319 2359 2297 
Q 2359 3022 2209 3506 
Q 2097 3866 1919 4016 
Q 1791 4119 1609 4119 
Q 1397 4119 1231 3928 
Q 1006 3669 925 3112 
Q 844 2556 844 2016 
z
" transform="scale(0.015625)"/>
       </defs>
       <use xlink:href="#TimesNewRomanPSMT-13"/>
      </g>
     </g>
    </g>
    <g id="xtick_2">
     <g id="line2d_2">
      <g>
       <use xlink:href="#mf1e5ee7694" x="105.953523" y="129.168" style="stroke: #000000; stroke-width: 0.8"/>
      </g>
     </g>
     <g id="text_2">
      <!-- 50 -->
      <g transform="translate(101.953523 141.714875) scale(0.08 -0.08)">
       <defs>
        <path id="TimesNewRomanPSMT-18" d="M 2778 4238 
L 2534 3706 
L 1259 3706 
L 981 3138 
Q 1809 3016 2294 2522 
Q 2709 2097 2709 1522 
Q 2709 1188 2573 903 
Q 2438 619 2231 419 
Q 2025 219 1772 97 
Q 1413 -75 1034 -75 
Q 653 -75 479 54 
Q 306 184 306 341 
Q 306 428 378 495 
Q 450 563 559 563 
Q 641 563 702 538 
Q 763 513 909 409 
Q 1144 247 1384 247 
Q 1750 247 2026 523 
Q 2303 800 2303 1197 
Q 2303 1581 2056 1914 
Q 1809 2247 1375 2428 
Q 1034 2569 447 2591 
L 1259 4238 
L 2778 4238 
z
" transform="scale(0.015625)"/>
       </defs>
       <use xlink:href="#TimesNewRomanPSMT-18"/>
       <use xlink:href="#TimesNewRomanPSMT-13" transform="translate(50 0)"/>
      </g>
     </g>
    </g>
    <g id="xtick_3">
     <g id="line2d_3">
      <g>
       <use xlink:href="#mf1e5ee7694" x="160.659405" y="129.168" style="stroke: #000000; stroke-width: 0.8"/>
      </g>
     </g>
     <g id="text_3">
      <!-- 100 -->
      <g transform="translate(154.659405 141.714875) scale(0.08 -0.08)">
       <defs>
        <path id="TimesNewRomanPSMT-14" d="M 750 3822 
L 1781 4325 
L 1884 4325 
L 1884 747 
Q 1884 391 1914 303 
Q 1944 216 2037 169 
Q 2131 122 2419 116 
L 2419 0 
L 825 0 
L 825 116 
Q 1125 122 1212 167 
Q 1300 213 1334 289 
Q 1369 366 1369 747 
L 1369 3034 
Q 1369 3497 1338 3628 
Q 1316 3728 1258 3775 
Q 1200 3822 1119 3822 
Q 1003 3822 797 3725 
L 750 3822 
z
" transform="scale(0.015625)"/>
       </defs>
       <use xlink:href="#TimesNewRomanPSMT-14"/>
       <use xlink:href="#TimesNewRomanPSMT-13" transform="translate(50 0)"/>
       <use xlink:href="#TimesNewRomanPSMT-13" transform="translate(100 0)"/>
      </g>
     </g>
    </g>
    <g id="xtick_4">
     <g id="line2d_4">
      <g>
       <use xlink:href="#mf1e5ee7694" x="215.365287" y="129.168" style="stroke: #000000; stroke-width: 0.8"/>
      </g>
     </g>
     <g id="text_4">
      <!-- 150 -->
      <g transform="translate(209.365287 141.714875) scale(0.08 -0.08)">
       <use xlink:href="#TimesNewRomanPSMT-14"/>
       <use xlink:href="#TimesNewRomanPSMT-18" transform="translate(50 0)"/>
       <use xlink:href="#TimesNewRomanPSMT-13" transform="translate(100 0)"/>
      </g>
     </g>
    </g>
    <g id="xtick_5">
     <g id="line2d_5">
      <g>
       <use xlink:href="#mf1e5ee7694" x="270.07117" y="129.168" style="stroke: #000000; stroke-width: 0.8"/>
      </g>
     </g>
     <g id="text_5">
      <!-- 200 -->
      <g transform="translate(264.07117 141.714875) scale(0.08 -0.08)">
       <defs>
        <path id="TimesNewRomanPSMT-15" d="M 2934 816 
L 2638 0 
L 138 0 
L 138 116 
Q 1241 1122 1691 1759 
Q 2141 2397 2141 2925 
Q 2141 3328 1894 3587 
Q 1647 3847 1303 3847 
Q 991 3847 742 3664 
Q 494 3481 375 3128 
L 259 3128 
Q 338 3706 661 4015 
Q 984 4325 1469 4325 
Q 1984 4325 2329 3994 
Q 2675 3663 2675 3213 
Q 2675 2891 2525 2569 
Q 2294 2063 1775 1497 
Q 997 647 803 472 
L 1909 472 
Q 2247 472 2383 497 
Q 2519 522 2628 598 
Q 2738 675 2819 816 
L 2934 816 
z
" transform="scale(0.015625)"/>
       </defs>
       <use xlink:href="#TimesNewRomanPSMT-15"/>
       <use xlink:href="#TimesNewRomanPSMT-13" transform="translate(50 0)"/>
       <use xlink:href="#TimesNewRomanPSMT-13" transform="translate(100 0)"/>
      </g>
     </g>
    </g>
    <g id="xtick_6">
     <g id="line2d_6">
      <g>
       <use xlink:href="#mf1e5ee7694" x="324.777052" y="129.168" style="stroke: #000000; stroke-width: 0.8"/>
      </g>
     </g>
     <g id="text_6">
      <!-- 250 -->
      <g transform="translate(318.777052 141.714875) scale(0.08 -0.08)">
       <use xlink:href="#TimesNewRomanPSMT-15"/>
       <use xlink:href="#TimesNewRomanPSMT-18" transform="translate(50 0)"/>
       <use xlink:href="#TimesNewRomanPSMT-13" transform="translate(100 0)"/>
      </g>
     </g>
    </g>
    <g id="text_7">
     <!-- Level-1 cell, ordered by size -->
     <g transform="translate(140.49043 153.690812) scale(0.09 -0.09)">
      <defs>
       <path id="TimesNewRomanPSMT-2f" d="M 3669 1172 
L 3772 1150 
L 3409 0 
L 128 0 
L 128 116 
L 288 116 
Q 556 116 672 291 
Q 738 391 738 753 
L 738 3488 
Q 738 3884 650 3984 
Q 528 4122 288 4122 
L 128 4122 
L 128 4238 
L 2047 4238 
L 2047 4122 
Q 1709 4125 1573 4059 
Q 1438 3994 1388 3894 
Q 1338 3794 1338 3416 
L 1338 753 
Q 1338 494 1388 397 
Q 1425 331 1503 300 
Q 1581 269 1991 269 
L 2300 269 
Q 2788 269 2984 341 
Q 3181 413 3343 595 
Q 3506 778 3669 1172 
z
" transform="scale(0.015625)"/>
       <path id="TimesNewRomanPSMT-48" d="M 681 1784 
Q 678 1147 991 784 
Q 1303 422 1725 422 
Q 2006 422 2214 576 
Q 2422 731 2563 1106 
L 2659 1044 
Q 2594 616 2278 264 
Q 1963 -88 1488 -88 
Q 972 -88 605 314 
Q 238 716 238 1394 
Q 238 2128 614 2539 
Q 991 2950 1559 2950 
Q 2041 2950 2350 2633 
Q 2659 2316 2659 1784 
L 681 1784 
z
M 681 1966 
L 2006 1966 
Q 1991 2241 1941 2353 
Q 1863 2528 1708 2628 
Q 1553 2728 1384 2728 
Q 1125 2728 920 2526 
Q 716 2325 681 1966 
z
" transform="scale(0.015625)"/>
       <path id="TimesNewRomanPSMT-59" d="M 53 2863 
L 1400 2863 
L 1400 2747 
L 1313 2747 
Q 1191 2747 1127 2687 
Q 1063 2628 1063 2528 
Q 1063 2419 1128 2269 
L 1794 688 
L 2463 2328 
Q 2534 2503 2534 2594 
Q 2534 2638 2509 2666 
Q 2475 2713 2422 2730 
Q 2369 2747 2206 2747 
L 2206 2863 
L 3141 2863 
L 3141 2747 
Q 2978 2734 2916 2681 
Q 2806 2588 2719 2369 
L 1703 -88 
L 1575 -88 
L 553 2328 
Q 484 2497 421 2570 
Q 359 2644 263 2694 
Q 209 2722 53 2747 
L 53 2863 
z
" transform="scale(0.015625)"/>
       <path id="TimesNewRomanPSMT-4f" d="M 1184 4444 
L 1184 647 
Q 1184 378 1223 290 
Q 1263 203 1344 158 
Q 1425 113 1647 113 
L 1647 0 
L 244 0 
L 244 113 
Q 441 113 512 153 
Q 584 194 625 287 
Q 666 381 666 647 
L 666 3247 
Q 666 3731 644 3842 
Q 622 3953 573 3993 
Q 525 4034 450 4034 
Q 369 4034 244 3984 
L 191 4094 
L 1044 4444 
L 1184 4444 
z
" transform="scale(0.015625)"/>
       <path id="TimesNewRomanPSMT-10" d="M 259 1672 
L 1875 1672 
L 1875 1200 
L 259 1200 
L 259 1672 
z
" transform="scale(0.015625)"/>
       <path id="TimesNewRomanPSMT-3" transform="scale(0.015625)"/>
       <path id="TimesNewRomanPSMT-46" d="M 2631 1088 
Q 2516 522 2178 217 
Q 1841 -88 1431 -88 
Q 944 -88 581 321 
Q 219 731 219 1428 
Q 219 2103 620 2525 
Q 1022 2947 1584 2947 
Q 2006 2947 2278 2723 
Q 2550 2500 2550 2259 
Q 2550 2141 2473 2067 
Q 2397 1994 2259 1994 
Q 2075 1994 1981 2113 
Q 1928 2178 1911 2362 
Q 1894 2547 1784 2644 
Q 1675 2738 1481 2738 
Q 1169 2738 978 2506 
Q 725 2200 725 1697 
Q 725 1184 976 792 
Q 1228 400 1656 400 
Q 1963 400 2206 609 
Q 2378 753 2541 1131 
L 2631 1088 
z
" transform="scale(0.015625)"/>
       <path id="TimesNewRomanPSMT-f" d="M 344 -1066 
L 344 -928 
Q 666 -822 842 -598 
Q 1019 -375 1019 -125 
Q 1019 -66 991 -25 
Q 969 3 947 3 
Q 913 3 797 -59 
Q 741 -88 678 -88 
Q 525 -88 434 3 
Q 344 94 344 253 
Q 344 406 461 515 
Q 578 625 747 625 
Q 953 625 1114 445 
Q 1275 266 1275 -31 
Q 1275 -353 1051 -629 
Q 828 -906 344 -1066 
z
" transform="scale(0.015625)"/>
       <path id="TimesNewRomanPSMT-52" d="M 1600 2947 
Q 2250 2947 2644 2453 
Q 2978 2031 2978 1484 
Q 2978 1100 2793 706 
Q 2609 313 2286 112 
Q 1963 -88 1566 -88 
Q 919 -88 538 428 
Q 216 863 216 1403 
Q 216 1797 411 2186 
Q 606 2575 925 2761 
Q 1244 2947 1600 2947 
z
M 1503 2744 
Q 1338 2744 1170 2645 
Q 1003 2547 900 2300 
Q 797 2053 797 1666 
Q 797 1041 1045 587 
Q 1294 134 1700 134 
Q 2003 134 2200 384 
Q 2397 634 2397 1244 
Q 2397 2006 2069 2444 
Q 1847 2744 1503 2744 
z
" transform="scale(0.015625)"/>
       <path id="TimesNewRomanPSMT-55" d="M 1038 2947 
L 1038 2303 
Q 1397 2947 1775 2947 
Q 1947 2947 2059 2842 
Q 2172 2738 2172 2600 
Q 2172 2478 2090 2393 
Q 2009 2309 1897 2309 
Q 1788 2309 1652 2417 
Q 1516 2525 1450 2525 
Q 1394 2525 1328 2463 
Q 1188 2334 1038 2041 
L 1038 669 
Q 1038 431 1097 309 
Q 1138 225 1241 169 
Q 1344 113 1538 113 
L 1538 0 
L 72 0 
L 72 113 
Q 291 113 397 181 
Q 475 231 506 341 
Q 522 394 522 644 
L 522 1753 
Q 522 2253 501 2348 
Q 481 2444 426 2487 
Q 372 2531 291 2531 
Q 194 2531 72 2484 
L 41 2597 
L 906 2947 
L 1038 2947 
z
" transform="scale(0.015625)"/>
       <path id="TimesNewRomanPSMT-47" d="M 2222 322 
Q 2013 103 1813 7 
Q 1613 -88 1381 -88 
Q 913 -88 563 304 
Q 213 697 213 1313 
Q 213 1928 600 2439 
Q 988 2950 1597 2950 
Q 1975 2950 2222 2709 
L 2222 3238 
Q 2222 3728 2198 3840 
Q 2175 3953 2125 3993 
Q 2075 4034 2000 4034 
Q 1919 4034 1784 3984 
L 1744 4094 
L 2597 4444 
L 2738 4444 
L 2738 1134 
Q 2738 631 2761 520 
Q 2784 409 2836 365 
Q 2888 322 2956 322 
Q 3041 322 3181 375 
L 3216 266 
L 2366 -88 
L 2222 -88 
L 2222 322 
z
M 2222 541 
L 2222 2016 
Q 2203 2228 2109 2403 
Q 2016 2578 1861 2667 
Q 1706 2756 1559 2756 
Q 1284 2756 1069 2509 
Q 784 2184 784 1559 
Q 784 928 1059 592 
Q 1334 256 1672 256 
Q 1956 256 2222 541 
z
" transform="scale(0.015625)"/>
       <path id="TimesNewRomanPSMT-45" d="M 984 2369 
Q 1400 2947 1881 2947 
Q 2322 2947 2650 2570 
Q 2978 2194 2978 1541 
Q 2978 778 2472 313 
Q 2038 -88 1503 -88 
Q 1253 -88 995 3 
Q 738 94 469 275 
L 469 3241 
Q 469 3728 445 3840 
Q 422 3953 372 3993 
Q 322 4034 247 4034 
Q 159 4034 28 3984 
L -16 4094 
L 844 4444 
L 984 4444 
L 984 2369 
z
M 984 2169 
L 984 456 
Q 1144 300 1314 220 
Q 1484 141 1663 141 
Q 1947 141 2192 453 
Q 2438 766 2438 1363 
Q 2438 1913 2192 2208 
Q 1947 2503 1634 2503 
Q 1469 2503 1303 2419 
Q 1178 2356 984 2169 
z
" transform="scale(0.015625)"/>
       <path id="TimesNewRomanPSMT-5c" d="M 38 2863 
L 1372 2863 
L 1372 2747 
L 1306 2747 
Q 1166 2747 1095 2686 
Q 1025 2625 1025 2534 
Q 1025 2413 1128 2197 
L 1825 753 
L 2466 2334 
Q 2519 2463 2519 2588 
Q 2519 2644 2497 2672 
Q 2472 2706 2419 2726 
Q 2366 2747 2231 2747 
L 2231 2863 
L 3163 2863 
L 3163 2747 
Q 3047 2734 2984 2696 
Q 2922 2659 2847 2556 
Q 2819 2513 2741 2316 
L 1575 -541 
Q 1406 -956 1132 -1168 
Q 859 -1381 606 -1381 
Q 422 -1381 303 -1275 
Q 184 -1169 184 -1031 
Q 184 -900 270 -820 
Q 356 -741 506 -741 
Q 609 -741 788 -809 
Q 913 -856 944 -856 
Q 1038 -856 1148 -759 
Q 1259 -663 1372 -384 
L 1575 113 
L 547 2272 
Q 500 2369 397 2513 
Q 319 2622 269 2659 
Q 197 2709 38 2747 
L 38 2863 
z
" transform="scale(0.015625)"/>
       <path id="TimesNewRomanPSMT-56" d="M 2050 2947 
L 2050 1972 
L 1947 1972 
Q 1828 2431 1642 2597 
Q 1456 2763 1169 2763 
Q 950 2763 815 2647 
Q 681 2531 681 2391 
Q 681 2216 781 2091 
Q 878 1963 1175 1819 
L 1631 1597 
Q 2266 1288 2266 781 
Q 2266 391 1970 151 
Q 1675 -88 1309 -88 
Q 1047 -88 709 6 
Q 606 38 541 38 
Q 469 38 428 -44 
L 325 -44 
L 325 978 
L 428 978 
Q 516 541 762 319 
Q 1009 97 1316 97 
Q 1531 97 1667 223 
Q 1803 350 1803 528 
Q 1803 744 1651 891 
Q 1500 1038 1047 1263 
Q 594 1488 453 1669 
Q 313 1847 313 2119 
Q 313 2472 555 2709 
Q 797 2947 1181 2947 
Q 1350 2947 1591 2875 
Q 1750 2828 1803 2828 
Q 1853 2828 1881 2850 
Q 1909 2872 1947 2947 
L 2050 2947 
z
" transform="scale(0.015625)"/>
       <path id="TimesNewRomanPSMT-4c" d="M 928 4444 
Q 1059 4444 1151 4351 
Q 1244 4259 1244 4128 
Q 1244 3997 1151 3903 
Q 1059 3809 928 3809 
Q 797 3809 703 3903 
Q 609 3997 609 4128 
Q 609 4259 701 4351 
Q 794 4444 928 4444 
z
M 1188 2947 
L 1188 647 
Q 1188 378 1227 289 
Q 1266 200 1342 156 
Q 1419 113 1622 113 
L 1622 0 
L 231 0 
L 231 113 
Q 441 113 512 153 
Q 584 194 626 287 
Q 669 381 669 647 
L 669 1750 
Q 669 2216 641 2353 
Q 619 2453 572 2492 
Q 525 2531 444 2531 
Q 356 2531 231 2484 
L 188 2597 
L 1050 2947 
L 1188 2947 
z
" transform="scale(0.015625)"/>
       <path id="TimesNewRomanPSMT-5d" d="M 2688 878 
L 2653 0 
L 128 0 
L 128 113 
L 2028 2644 
L 1091 2644 
Q 788 2644 694 2605 
Q 600 2566 541 2456 
Q 456 2300 444 2069 
L 319 2069 
L 338 2863 
L 2738 2863 
L 2738 2747 
L 819 209 
L 1863 209 
Q 2191 209 2308 264 
Q 2425 319 2497 456 
Q 2547 556 2581 878 
L 2688 878 
z
" transform="scale(0.015625)"/>
      </defs>
      <use xlink:href="#TimesNewRomanPSMT-2f"/>
      <use xlink:href="#TimesNewRomanPSMT-48" transform="translate(61.078125 0)"/>
      <use xlink:href="#TimesNewRomanPSMT-59" transform="translate(105.46875 0)"/>
      <use xlink:href="#TimesNewRomanPSMT-48" transform="translate(155.46875 0)"/>
      <use xlink:href="#TimesNewRomanPSMT-4f" transform="translate(199.859375 0)"/>
      <use xlink:href="#TimesNewRomanPSMT-10" transform="translate(227.640625 0)"/>
      <use xlink:href="#TimesNewRomanPSMT-14" transform="translate(260.9375 0)"/>
      <use xlink:href="#TimesNewRomanPSMT-3" transform="translate(310.9375 0)"/>
      <use xlink:href="#TimesNewRomanPSMT-46" transform="translate(335.9375 0)"/>
      <use xlink:href="#TimesNewRomanPSMT-48" transform="translate(380.328125 0)"/>
      <use xlink:href="#TimesNewRomanPSMT-4f" transform="translate(424.71875 0)"/>
      <use xlink:href="#TimesNewRomanPSMT-4f" transform="translate(452.5 0)"/>
      <use xlink:href="#TimesNewRomanPSMT-f" transform="translate(480.28125 0)"/>
      <use xlink:href="#TimesNewRomanPSMT-3" transform="translate(505.28125 0)"/>
      <use xlink:href="#TimesNewRomanPSMT-52" transform="translate(530.28125 0)"/>
      <use xlink:href="#TimesNewRomanPSMT-55" transform="translate(580.28125 0)"/>
      <use xlink:href="#TimesNewRomanPSMT-47" transform="translate(613.578125 0)"/>
      <use xlink:href="#TimesNewRomanPSMT-48" transform="translate(663.578125 0)"/>
      <use xlink:href="#TimesNewRomanPSMT-55" transform="translate(707.96875 0)"/>
      <use xlink:href="#TimesNewRomanPSMT-48" transform="translate(741.265625 0)"/>
      <use xlink:href="#TimesNewRomanPSMT-47" transform="translate(785.65625 0)"/>
      <use xlink:href="#TimesNewRomanPSMT-3" transform="translate(835.65625 0)"/>
      <use xlink:href="#TimesNewRomanPSMT-45" transform="translate(860.65625 0)"/>
      <use xlink:href="#TimesNewRomanPSMT-5c" transform="translate(910.65625 0)"/>
      <use xlink:href="#TimesNewRomanPSMT-3" transform="translate(960.65625 0)"/>
      <use xlink:href="#TimesNewRomanPSMT-56" transform="translate(985.65625 0)"/>
      <use xlink:href="#TimesNewRomanPSMT-4c" transform="translate(1024.578125 0)"/>
      <use xlink:href="#TimesNewRomanPSMT-5d" transform="translate(1052.359375 0)"/>
      <use xlink:href="#TimesNewRomanPSMT-48" transform="translate(1096.75 0)"/>
     </g>
    </g>
   </g>
   <g id="matplotlib.axis_2">
    <g id="ytick_1">
     <g id="line2d_7">
      <defs>
       <path id="m19c9e688ab" d="M 0 0 
L -3.5 0 
" style="stroke: #000000; stroke-width: 0.8"/>
      </defs>
      <g>
       <use xlink:href="#m19c9e688ab" x="38.391758" y="123.624" style="stroke: #000000; stroke-width: 0.8"/>
      </g>
     </g>
     <g id="text_8">
      <!-- 0 -->
      <g transform="translate(27.391758 126.397438) scale(0.08 -0.08)">
       <use xlink:href="#TimesNewRomanPSMT-13"/>
      </g>
     </g>
    </g>
    <g id="ytick_2">
     <g id="line2d_8">
      <g>
       <use xlink:href="#m19c9e688ab" x="38.391758" y="92.301966" style="stroke: #000000; stroke-width: 0.8"/>
      </g>
     </g>
     <g id="text_9">
      <!-- 50 -->
      <g transform="translate(23.391758 95.075404) scale(0.08 -0.08)">
       <use xlink:href="#TimesNewRomanPSMT-18"/>
       <use xlink:href="#TimesNewRomanPSMT-13" transform="translate(50 0)"/>
      </g>
     </g>
    </g>
    <g id="ytick_3">
     <g id="line2d_9">
      <g>
       <use xlink:href="#m19c9e688ab" x="38.391758" y="60.979932" style="stroke: #000000; stroke-width: 0.8"/>
      </g>
     </g>
     <g id="text_10">
      <!-- 100 -->
      <g transform="translate(19.391758 63.75337) scale(0.08 -0.08)">
       <use xlink:href="#TimesNewRomanPSMT-14"/>
       <use xlink:href="#TimesNewRomanPSMT-13" transform="translate(50 0)"/>
       <use xlink:href="#TimesNewRomanPSMT-13" transform="translate(100 0)"/>
      </g>
     </g>
    </g>
    <g id="ytick_4">
     <g id="line2d_10">
      <g>
       <use xlink:href="#m19c9e688ab" x="38.391758" y="29.657898" style="stroke: #000000; stroke-width: 0.8"/>
      </g>
     </g>
     <g id="text_11">
      <!-- 150 -->
      <g transform="translate(19.391758 32.431336) scale(0.08 -0.08)">
       <use xlink:href="#TimesNewRomanPSMT-14"/>
       <use xlink:href="#TimesNewRomanPSMT-18" transform="translate(50 0)"/>
       <use xlink:href="#TimesNewRomanPSMT-13" transform="translate(100 0)"/>
      </g>
     </g>
    </g>
    <g id="text_12">
     <!-- Chunks in the cell -->
     <g transform="translate(13.449375 100.805484) rotate(-90) scale(0.09 -0.09)">
      <defs>
       <path id="TimesNewRomanPSMT-26" d="M 3853 4334 
L 3950 2894 
L 3853 2894 
Q 3659 3541 3300 3825 
Q 2941 4109 2438 4109 
Q 2016 4109 1675 3895 
Q 1334 3681 1139 3212 
Q 944 2744 944 2047 
Q 944 1472 1128 1050 
Q 1313 628 1683 403 
Q 2053 178 2528 178 
Q 2941 178 3256 354 
Q 3572 531 3950 1056 
L 4047 994 
Q 3728 428 3303 165 
Q 2878 -97 2294 -97 
Q 1241 -97 663 684 
Q 231 1266 231 2053 
Q 231 2688 515 3219 
Q 800 3750 1298 4042 
Q 1797 4334 2388 4334 
Q 2847 4334 3294 4109 
Q 3425 4041 3481 4041 
Q 3566 4041 3628 4100 
Q 3709 4184 3744 4334 
L 3853 4334 
z
" transform="scale(0.015625)"/>
       <path id="TimesNewRomanPSMT-4b" d="M 1041 4444 
L 1041 2350 
Q 1388 2731 1591 2839 
Q 1794 2947 1997 2947 
Q 2241 2947 2416 2812 
Q 2591 2678 2675 2391 
Q 2734 2191 2734 1659 
L 2734 647 
Q 2734 375 2778 275 
Q 2809 200 2884 156 
Q 2959 113 3159 113 
L 3159 0 
L 1753 0 
L 1753 113 
L 1819 113 
Q 2019 113 2097 173 
Q 2175 234 2206 353 
Q 2216 403 2216 647 
L 2216 1659 
Q 2216 2128 2167 2275 
Q 2119 2422 2012 2495 
Q 1906 2569 1756 2569 
Q 1603 2569 1437 2487 
Q 1272 2406 1041 2159 
L 1041 647 
Q 1041 353 1073 281 
Q 1106 209 1195 161 
Q 1284 113 1503 113 
L 1503 0 
L 84 0 
L 84 113 
Q 275 113 384 172 
Q 447 203 484 290 
Q 522 378 522 647 
L 522 3238 
Q 522 3728 498 3840 
Q 475 3953 426 3993 
Q 378 4034 297 4034 
Q 231 4034 84 3984 
L 41 4094 
L 897 4444 
L 1041 4444 
z
" transform="scale(0.015625)"/>
       <path id="TimesNewRomanPSMT-58" d="M 2709 2863 
L 2709 1128 
Q 2709 631 2732 520 
Q 2756 409 2807 365 
Q 2859 322 2928 322 
Q 3025 322 3147 375 
L 3191 266 
L 2334 -88 
L 2194 -88 
L 2194 519 
Q 1825 119 1631 15 
Q 1438 -88 1222 -88 
Q 981 -88 804 51 
Q 628 191 559 409 
Q 491 628 491 1028 
L 491 2306 
Q 491 2509 447 2587 
Q 403 2666 317 2708 
Q 231 2750 6 2747 
L 6 2863 
L 1009 2863 
L 1009 947 
Q 1009 547 1148 422 
Q 1288 297 1484 297 
Q 1619 297 1789 381 
Q 1959 466 2194 703 
L 2194 2325 
Q 2194 2569 2105 2655 
Q 2016 2741 1734 2747 
L 1734 2863 
L 2709 2863 
z
" transform="scale(0.015625)"/>
       <path id="TimesNewRomanPSMT-51" d="M 1034 2341 
Q 1538 2947 1994 2947 
Q 2228 2947 2397 2830 
Q 2566 2713 2666 2444 
Q 2734 2256 2734 1869 
L 2734 647 
Q 2734 375 2778 278 
Q 2813 200 2889 156 
Q 2966 113 3172 113 
L 3172 0 
L 1756 0 
L 1756 113 
L 1816 113 
Q 2016 113 2095 173 
Q 2175 234 2206 353 
Q 2219 400 2219 647 
L 2219 1819 
Q 2219 2209 2117 2386 
Q 2016 2563 1775 2563 
Q 1403 2563 1034 2156 
L 1034 647 
Q 1034 356 1069 288 
Q 1113 197 1189 155 
Q 1266 113 1500 113 
L 1500 0 
L 84 0 
L 84 113 
L 147 113 
Q 366 113 442 223 
Q 519 334 519 647 
L 519 1709 
Q 519 2225 495 2337 
Q 472 2450 423 2490 
Q 375 2531 294 2531 
Q 206 2531 84 2484 
L 38 2597 
L 900 2947 
L 1034 2947 
L 1034 2341 
z
" transform="scale(0.015625)"/>
       <path id="TimesNewRomanPSMT-4e" d="M 1047 4444 
L 1047 1594 
L 1775 2259 
Q 2006 2472 2044 2528 
Q 2069 2566 2069 2603 
Q 2069 2666 2017 2711 
Q 1966 2756 1847 2763 
L 1847 2863 
L 3091 2863 
L 3091 2763 
Q 2834 2756 2664 2684 
Q 2494 2613 2291 2428 
L 1556 1750 
L 2291 822 
Q 2597 438 2703 334 
Q 2853 188 2966 144 
Q 3044 113 3238 113 
L 3238 0 
L 1847 0 
L 1847 113 
Q 1966 116 2008 148 
Q 2050 181 2050 241 
Q 2050 313 1925 472 
L 1047 1594 
L 1047 644 
Q 1047 366 1086 278 
Q 1125 191 1197 153 
Q 1269 116 1509 113 
L 1509 0 
L 53 0 
L 53 113 
Q 272 113 381 166 
Q 447 200 481 272 
Q 528 375 528 628 
L 528 3234 
Q 528 3731 506 3842 
Q 484 3953 434 3995 
Q 384 4038 303 4038 
Q 238 4038 106 3984 
L 53 4094 
L 903 4444 
L 1047 4444 
z
" transform="scale(0.015625)"/>
       <path id="TimesNewRomanPSMT-57" d="M 1031 3803 
L 1031 2863 
L 1700 2863 
L 1700 2644 
L 1031 2644 
L 1031 788 
Q 1031 509 1111 412 
Q 1191 316 1316 316 
Q 1419 316 1516 380 
Q 1613 444 1666 569 
L 1788 569 
Q 1678 263 1478 108 
Q 1278 -47 1066 -47 
Q 922 -47 784 33 
Q 647 113 581 261 
Q 516 409 516 719 
L 516 2644 
L 63 2644 
L 63 2747 
Q 234 2816 414 2980 
Q 594 3144 734 3369 
Q 806 3488 934 3803 
L 1031 3803 
z
" transform="scale(0.015625)"/>
      </defs>
      <use xlink:href="#TimesNewRomanPSMT-26"/>
      <use xlink:href="#TimesNewRomanPSMT-4b" transform="translate(66.703125 0)"/>
      <use xlink:href="#TimesNewRomanPSMT-58" transform="translate(116.703125 0)"/>
      <use xlink:href="#TimesNewRomanPSMT-51" transform="translate(166.703125 0)"/>
      <use xlink:href="#TimesNewRomanPSMT-4e" transform="translate(216.703125 0)"/>
      <use xlink:href="#TimesNewRomanPSMT-56" transform="translate(266.703125 0)"/>
      <use xlink:href="#TimesNewRomanPSMT-3" transform="translate(305.625 0)"/>
      <use xlink:href="#TimesNewRomanPSMT-4c" transform="translate(330.625 0)"/>
      <use xlink:href="#TimesNewRomanPSMT-51" transform="translate(358.40625 0)"/>
      <use xlink:href="#TimesNewRomanPSMT-3" transform="translate(408.40625 0)"/>
      <use xlink:href="#TimesNewRomanPSMT-57" transform="translate(433.40625 0)"/>
      <use xlink:href="#TimesNewRomanPSMT-4b" transform="translate(461.1875 0)"/>
      <use xlink:href="#TimesNewRomanPSMT-48" transform="translate(511.1875 0)"/>
      <use xlink:href="#TimesNewRomanPSMT-3" transform="translate(555.578125 0)"/>
      <use xlink:href="#TimesNewRomanPSMT-46" transform="translate(580.578125 0)"/>
      <use xlink:href="#TimesNewRomanPSMT-48" transform="translate(624.96875 0)"/>
      <use xlink:href="#TimesNewRomanPSMT-4f" transform="translate(669.359375 0)"/>
      <use xlink:href="#TimesNewRomanPSMT-4f" transform="translate(697.140625 0)"/>
     </g>
    </g>
   </g>
   <g id="line2d_11">
    <path d="M 52.341758 12.744 
L 53.435875 47.824678 
L 54.529993 67.244339 
L 55.624111 72.255864 
L 56.718228 76.640949 
L 57.812346 77.26739 
L 60.000581 83.531797 
L 61.094699 83.531797 
L 62.188817 84.784678 
L 63.282934 84.784678 
L 64.377052 86.037559 
L 65.47117 86.664 
L 66.565287 86.664 
L 67.659405 87.916881 
L 68.753523 91.049085 
L 70.941758 92.301966 
L 72.035875 93.554847 
L 75.318228 93.554847 
L 79.694699 96.06061 
L 80.788817 97.313492 
L 81.882934 97.939932 
L 82.977052 97.939932 
L 86.259405 99.819254 
L 89.541758 99.819254 
L 90.635875 100.445695 
L 92.824111 100.445695 
L 93.918228 101.072136 
L 99.388817 101.072136 
L 100.482934 102.325017 
L 101.577052 102.951458 
L 102.67117 102.951458 
L 103.765287 104.204339 
L 109.235875 104.204339 
L 110.329993 104.83078 
L 113.612346 104.83078 
L 114.706464 105.45722 
L 117.988817 105.45722 
L 119.082934 106.083661 
L 123.459405 106.083661 
L 124.553523 106.710102 
L 128.929993 106.710102 
L 130.024111 107.336542 
L 137.682934 107.336542 
L 139.87117 108.589424 
L 143.153523 108.589424 
L 144.24764 109.215864 
L 146.435875 109.215864 
L 147.529993 109.842305 
L 149.718228 109.842305 
L 150.812346 110.468746 
L 153.000581 110.468746 
L 154.094699 111.095186 
L 160.659405 111.095186 
L 161.753523 111.721627 
L 168.318228 111.721627 
L 169.412346 112.348068 
L 171.600581 112.348068 
L 172.694699 112.974508 
L 173.788817 112.974508 
L 174.882934 113.600949 
L 181.44764 113.600949 
L 182.541758 114.22739 
L 188.012346 114.22739 
L 189.106464 114.853831 
L 202.235875 114.853831 
L 203.329993 115.480271 
L 208.800581 115.480271 
L 209.894699 116.106712 
L 216.459405 116.106712 
L 217.553523 116.733153 
L 224.118228 116.733153 
L 225.212346 117.359593 
L 229.588817 117.359593 
L 230.682934 117.986034 
L 236.153523 117.986034 
L 237.24764 118.612475 
L 241.624111 118.612475 
L 242.718228 119.238915 
L 251.47117 119.238915 
L 252.565287 119.865356 
L 266.788817 119.865356 
L 267.882934 120.491797 
L 277.729993 120.491797 
L 278.824111 121.118237 
L 297.424111 121.118237 
L 298.518228 121.744678 
L 309.459405 121.744678 
L 310.553523 122.371119 
L 314.929993 122.371119 
L 316.024111 122.997559 
L 323.682934 122.997559 
L 324.777052 123.624 
L 331.341758 123.624 
L 331.341758 123.624 
" clip-path="url(#p5e3cbaad33)" style="fill: none; stroke: #a23b2a; stroke-linecap: square"/>
   </g>
   <g id="line2d_12">
    <path d="M 52.341758 40.30739 
L 53.435875 85.411119 
L 54.529993 87.290441 
L 55.624111 92.301966 
L 56.718228 92.928407 
L 57.812346 94.181288 
L 61.094699 96.06061 
L 63.282934 98.566373 
L 64.377052 98.566373 
L 66.565287 99.819254 
L 68.753523 99.819254 
L 69.84764 100.445695 
L 73.129993 100.445695 
L 74.224111 101.072136 
L 78.600581 101.072136 
L 79.694699 101.698576 
L 82.977052 101.698576 
L 84.07117 102.325017 
L 85.165287 102.325017 
L 86.259405 102.951458 
L 88.44764 102.951458 
L 89.541758 103.577898 
L 92.824111 103.577898 
L 93.918228 104.204339 
L 101.577052 104.204339 
L 102.67117 104.83078 
L 103.765287 104.83078 
L 104.859405 105.45722 
L 108.141758 105.45722 
L 109.235875 106.083661 
L 111.424111 106.083661 
L 112.518228 106.710102 
L 116.894699 106.710102 
L 117.988817 107.336542 
L 120.177052 107.336542 
L 121.27117 107.962983 
L 126.741758 107.962983 
L 127.835875 108.589424 
L 134.400581 108.589424 
L 135.494699 109.215864 
L 139.87117 109.215864 
L 140.965287 109.842305 
L 147.529993 109.842305 
L 148.624111 110.468746 
L 159.565287 110.468746 
L 160.659405 111.095186 
L 168.318228 111.095186 
L 169.412346 111.721627 
L 181.44764 111.721627 
L 182.541758 112.348068 
L 194.577052 112.348068 
L 195.67117 112.974508 
L 212.082934 112.974508 
L 213.177052 113.600949 
L 217.553523 113.600949 
L 218.64764 114.22739 
L 228.494699 114.22739 
L 229.588817 114.853831 
L 240.529993 114.853831 
L 241.624111 115.480271 
L 258.035875 115.480271 
L 259.129993 116.106712 
L 264.600581 116.106712 
L 265.694699 116.733153 
L 275.541758 116.733153 
L 276.635875 117.359593 
L 290.859405 117.359593 
L 291.953523 117.986034 
L 297.424111 117.986034 
L 298.518228 118.612475 
L 310.553523 118.612475 
L 311.64764 119.238915 
L 317.118228 119.238915 
L 318.212346 119.865356 
L 320.400581 119.865356 
L 321.494699 120.491797 
L 326.965287 120.491797 
L 328.059405 121.118237 
L 331.341758 121.118237 
L 331.341758 121.118237 
" clip-path="url(#p5e3cbaad33)" style="fill: none; stroke: #1f4e79; stroke-linecap: square"/>
   </g>
   <g id="line2d_13">
    <path d="M 38.391758 111.007093 
L 345.291758 111.007093 
" clip-path="url(#p5e3cbaad33)" style="fill: none; stroke-dasharray: 2.96,1.28; stroke-dashoffset: 0; stroke: #8c8c8c; stroke-width: 0.8"/>
   </g>
   <g id="patch_3">
    <path d="M 38.391758 129.168 
L 38.391758 7.2 
" style="fill: none; stroke: #000000; stroke-width: 0.6; stroke-linejoin: miter; stroke-linecap: square"/>
   </g>
   <g id="patch_4">
    <path d="M 38.391758 129.168 
L 345.291758 129.168 
" style="fill: none; stroke: #000000; stroke-width: 0.6; stroke-linejoin: miter; stroke-linecap: square"/>
   </g>
   <g id="legend_1">
    <g id="line2d_14">
     <path d="M 272.163008 17.2 
L 280.163008 17.2 
L 288.163008 17.2 
" style="fill: none; stroke: #a23b2a; stroke-linecap: square"/>
    </g>
    <g id="text_13">
     <!-- raw vectors -->
     <g transform="translate(294.563008 20) scale(0.08 -0.08)">
      <defs>
       <path id="TimesNewRomanPSMT-44" d="M 1822 413 
Q 1381 72 1269 19 
Q 1100 -59 909 -59 
Q 613 -59 420 144 
Q 228 347 228 678 
Q 228 888 322 1041 
Q 450 1253 767 1440 
Q 1084 1628 1822 1897 
L 1822 2009 
Q 1822 2438 1686 2597 
Q 1550 2756 1291 2756 
Q 1094 2756 978 2650 
Q 859 2544 859 2406 
L 866 2225 
Q 866 2081 792 2003 
Q 719 1925 600 1925 
Q 484 1925 411 2006 
Q 338 2088 338 2228 
Q 338 2497 613 2722 
Q 888 2947 1384 2947 
Q 1766 2947 2009 2819 
Q 2194 2722 2281 2516 
Q 2338 2381 2338 1966 
L 2338 994 
Q 2338 584 2353 492 
Q 2369 400 2405 369 
Q 2441 338 2488 338 
Q 2538 338 2575 359 
Q 2641 400 2828 588 
L 2828 413 
Q 2478 -56 2159 -56 
Q 2006 -56 1915 50 
Q 1825 156 1822 413 
z
M 1822 616 
L 1822 1706 
Q 1350 1519 1213 1441 
Q 966 1303 859 1153 
Q 753 1003 753 825 
Q 753 600 887 451 
Q 1022 303 1197 303 
Q 1434 303 1822 616 
z
" transform="scale(0.015625)"/>
       <path id="TimesNewRomanPSMT-5a" d="M 41 2863 
L 1241 2863 
L 1241 2747 
Q 1075 2734 1023 2687 
Q 972 2641 972 2553 
Q 972 2456 1025 2319 
L 1638 672 
L 2253 2013 
L 2091 2434 
Q 2016 2622 1894 2694 
Q 1825 2738 1638 2747 
L 1638 2863 
L 3000 2863 
L 3000 2747 
Q 2775 2738 2681 2666 
Q 2619 2616 2619 2506 
Q 2619 2444 2644 2378 
L 3294 734 
L 3897 2319 
Q 3959 2488 3959 2588 
Q 3959 2647 3898 2694 
Q 3838 2741 3659 2747 
L 3659 2863 
L 4563 2863 
L 4563 2747 
Q 4291 2706 4163 2378 
L 3206 -88 
L 3078 -88 
L 2363 1741 
L 1528 -88 
L 1413 -88 
L 494 2319 
Q 403 2547 315 2626 
Q 228 2706 41 2747 
L 41 2863 
z
" transform="scale(0.015625)"/>
      </defs>
      <use xlink:href="#TimesNewRomanPSMT-55"/>
      <use xlink:href="#TimesNewRomanPSMT-44" transform="translate(33.296875 0)"/>
      <use xlink:href="#TimesNewRomanPSMT-5a" transform="translate(77.6875 0)"/>
      <use xlink:href="#TimesNewRomanPSMT-3" transform="translate(149.90625 0)"/>
      <use xlink:href="#TimesNewRomanPSMT-59" transform="translate(174.90625 0)"/>
      <use xlink:href="#TimesNewRomanPSMT-48" transform="translate(224.90625 0)"/>
      <use xlink:href="#TimesNewRomanPSMT-46" transform="translate(269.296875 0)"/>
      <use xlink:href="#TimesNewRomanPSMT-57" transform="translate(313.6875 0)"/>
      <use xlink:href="#TimesNewRomanPSMT-52" transform="translate(341.46875 0)"/>
      <use xlink:href="#TimesNewRomanPSMT-55" transform="translate(391.46875 0)"/>
      <use xlink:href="#TimesNewRomanPSMT-56" transform="translate(424.765625 0)"/>
     </g>
    </g>
    <g id="line2d_15">
     <path d="M 272.163008 28.526562 
L 280.163008 28.526562 
L 288.163008 28.526562 
" style="fill: none; stroke: #1f4e79; stroke-linecap: square"/>
    </g>
    <g id="text_14">
     <!-- mean-centred -->
     <g transform="translate(294.563008 31.326562) scale(0.08 -0.08)">
      <defs>
       <path id="TimesNewRomanPSMT-50" d="M 1050 2338 
Q 1363 2650 1419 2697 
Q 1559 2816 1721 2881 
Q 1884 2947 2044 2947 
Q 2313 2947 2506 2790 
Q 2700 2634 2766 2338 
Q 3088 2713 3309 2830 
Q 3531 2947 3766 2947 
Q 3994 2947 4170 2830 
Q 4347 2713 4450 2447 
Q 4519 2266 4519 1878 
L 4519 647 
Q 4519 378 4559 278 
Q 4591 209 4675 161 
Q 4759 113 4950 113 
L 4950 0 
L 3538 0 
L 3538 113 
L 3597 113 
Q 3781 113 3884 184 
Q 3956 234 3988 344 
Q 4000 397 4000 647 
L 4000 1878 
Q 4000 2228 3916 2372 
Q 3794 2572 3525 2572 
Q 3359 2572 3192 2489 
Q 3025 2406 2788 2181 
L 2781 2147 
L 2788 2013 
L 2788 647 
Q 2788 353 2820 281 
Q 2853 209 2943 161 
Q 3034 113 3253 113 
L 3253 0 
L 1806 0 
L 1806 113 
Q 2044 113 2133 169 
Q 2222 225 2256 338 
Q 2272 391 2272 647 
L 2272 1878 
Q 2272 2228 2169 2381 
Q 2031 2581 1784 2581 
Q 1616 2581 1450 2491 
Q 1191 2353 1050 2181 
L 1050 647 
Q 1050 366 1089 281 
Q 1128 197 1204 155 
Q 1281 113 1516 113 
L 1516 0 
L 100 0 
L 100 113 
Q 297 113 375 155 
Q 453 197 493 289 
Q 534 381 534 647 
L 534 1741 
Q 534 2213 506 2350 
Q 484 2453 437 2492 
Q 391 2531 309 2531 
Q 222 2531 100 2484 
L 53 2597 
L 916 2947 
L 1050 2947 
L 1050 2338 
z
" transform="scale(0.015625)"/>
      </defs>
      <use xlink:href="#TimesNewRomanPSMT-50"/>
      <use xlink:href="#TimesNewRomanPSMT-48" transform="translate(77.78125 0)"/>
      <use xlink:href="#TimesNewRomanPSMT-44" transform="translate(122.171875 0)"/>
      <use xlink:href="#TimesNewRomanPSMT-51" transform="translate(166.5625 0)"/>
      <use xlink:href="#TimesNewRomanPSMT-10" transform="translate(216.5625 0)"/>
      <use xlink:href="#TimesNewRomanPSMT-46" transform="translate(249.859375 0)"/>
      <use xlink:href="#TimesNewRomanPSMT-48" transform="translate(294.25 0)"/>
      <use xlink:href="#TimesNewRomanPSMT-51" transform="translate(338.640625 0)"/>
      <use xlink:href="#TimesNewRomanPSMT-57" transform="translate(388.640625 0)"/>
      <use xlink:href="#TimesNewRomanPSMT-55" transform="translate(416.421875 0)"/>
      <use xlink:href="#TimesNewRomanPSMT-48" transform="translate(449.71875 0)"/>
      <use xlink:href="#TimesNewRomanPSMT-47" transform="translate(494.109375 0)"/>
     </g>
    </g>
    <g id="line2d_16">
     <path d="M 272.163008 39.853125 
L 280.163008 39.853125 
L 288.163008 39.853125 
" style="fill: none; stroke-dasharray: 2.96,1.28; stroke-dashoffset: 0; stroke: #8c8c8c; stroke-width: 0.8"/>
    </g>
    <g id="text_15">
     <!-- uniform -->
     <g transform="translate(294.563008 42.653125) scale(0.08 -0.08)">
      <defs>
       <path id="TimesNewRomanPSMT-49" d="M 1319 2638 
L 1319 756 
Q 1319 356 1406 250 
Q 1522 113 1716 113 
L 1975 113 
L 1975 0 
L 266 0 
L 266 113 
L 394 113 
Q 519 113 622 175 
Q 725 238 764 344 
Q 803 450 803 756 
L 803 2638 
L 247 2638 
L 247 2863 
L 803 2863 
L 803 3050 
Q 803 3478 940 3775 
Q 1078 4072 1361 4255 
Q 1644 4438 1997 4438 
Q 2325 4438 2600 4225 
Q 2781 4084 2781 3909 
Q 2781 3816 2700 3733 
Q 2619 3650 2525 3650 
Q 2453 3650 2373 3701 
Q 2294 3753 2178 3923 
Q 2063 4094 1966 4153 
Q 1869 4213 1750 4213 
Q 1606 4213 1506 4136 
Q 1406 4059 1362 3898 
Q 1319 3738 1319 3069 
L 1319 2863 
L 2056 2863 
L 2056 2638 
L 1319 2638 
z
" transform="scale(0.015625)"/>
      </defs>
      <use xlink:href="#TimesNewRomanPSMT-58"/>
      <use xlink:href="#TimesNewRomanPSMT-51" transform="translate(50 0)"/>
      <use xlink:href="#TimesNewRomanPSMT-4c" transform="translate(100 0)"/>
      <use xlink:href="#TimesNewRomanPSMT-49" transform="translate(127.78125 0)"/>
      <use xlink:href="#TimesNewRomanPSMT-52" transform="translate(161.078125 0)"/>
      <use xlink:href="#TimesNewRomanPSMT-55" transform="translate(211.078125 0)"/>
      <use xlink:href="#TimesNewRomanPSMT-50" transform="translate(244.375 0)"/>
     </g>
    </g>
   </g>
  </g>
 </g>
 <defs>
  <clipPath id="p5e3cbaad33">
   <rect x="38.391758" y="7.2" width="306.9" height="121.968"/>
  </clipPath>
 </defs>
</svg>
